<?xml version="1.0" encoding="UTF-8" standalone="no"?>
<!--Generator: Apple Native CoreSVG 175.5-->

<svg
   version="1.1"
   width="28.1934"
   height="17.7051"
   id="svg140"
   sodipodi:docname="gamecontroller.svg"
   inkscape:version="1.2 (dc2aeda, 2022-05-15)"
   xmlns:inkscape="http://www.inkscape.org/namespaces/inkscape"
   xmlns:sodipodi="http://sodipodi.sourceforge.net/DTD/sodipodi-0.dtd"
   xmlns="http://www.w3.org/2000/svg"
   xmlns:svg="http://www.w3.org/2000/svg">
  <defs
     id="defs144" />
  <sodipodi:namedview
     id="namedview142"
     pagecolor="#ffffff"
     bordercolor="#666666"
     borderopacity="1.0"
     inkscape:showpageshadow="2"
     inkscape:pageopacity="0.0"
     inkscape:pagecheckerboard="0"
     inkscape:deskcolor="#d1d1d1"
     showgrid="false"
     inkscape:zoom="7.7564662"
     inkscape:cx="6.0594604"
     inkscape:cy="0.64462345"
     inkscape:window-width="724"
     inkscape:window-height="456"
     inkscape:window-x="184"
     inkscape:window-y="25"
     inkscape:window-maximized="0"
     inkscape:current-layer="g138" />
  <g
     id="g138"
     transform="translate(-8.5846494,-18.194056)">
    <rect
       height="17.705099"
       opacity="0"
       width="28.193399"
       x="0"
       y="0"
       id="rect132" />
    <path
       d="m 0,13.9355 c 0,2.2852 1.48438,3.7696 3.7207,3.7696 1.13282,0 2.25586,-0.4883 3.07618,-1.5039 L 8.56445,14.0625 C 8.81836,13.7598 9.11133,13.6133 9.4043,13.6133 h 9.3848 c 0.2929,0 0.5859,0.1465 0.8398,0.4492 l 1.7676,2.1387 c 0.8203,1.0156 1.9433,1.5039 3.0762,1.5039 2.2363,0 3.7207,-1.4844 3.7207,-3.7696 0,-0.9765 -0.2246,-2.0996 -0.6055,-3.3593 C 26.9922,8.57422 25.9473,5.84961 24.9512,3.74023 24.1113,1.98242 23.6816,1.18164 21.6113,0.712891 19.7754,0.292969 17.2266,0.00976562 14.1016,0.00976562 10.9766,0.00976562 8.41797,0.292969 6.58203,0.712891 4.51172,1.18164 4.08203,1.98242 3.24219,3.74023 2.24609,5.84961 1.20117,8.57422 0.605469,10.5762 0.224609,11.8359 0,12.959 0,13.9355 Z m 1.49414,0.0586 c 0,-0.6152 0.13672,-1.3574 0.44922,-2.4218 C 2.59766,9.32617 3.73047,6.41602 4.7168,4.25781 5.19531,3.21289 5.45898,2.57812 6.72852,2.28516 8.49609,1.86523 11.0156,1.58203 14.1016,1.58203 c 3.0761,0 5.5957,0.2832 7.3632,0.70313 1.2696,0.29296 1.5235,0.92773 2.0118,1.97265 1.0058,2.15821 2.0898,5.07813 2.7734,7.31449 0.3223,1.0644 0.4492,1.8066 0.4492,2.4218 0,1.3477 -0.9472,2.1973 -2.207,2.1973 -0.7422,0 -1.4649,-0.3906 -2.0313,-1.084 L 20.625,12.8906 C 20.1562,12.3242 19.7656,12.041 18.8574,12.041 H 9.33594 c -0.90821,0 -1.29883,0.2832 -1.76758,0.8496 l -1.83594,2.2168 c -0.5664,0.6934 -1.28906,1.084 -2.03125,1.084 -1.25976,0 -2.20703,-0.8496 -2.20703,-2.1973 z"
       fill="#000"
       fill-opacity="0.85"
       id="path134" />
    <path
       d="m 6.19141,6.89453 c 0,0.50781 0.30273,0.82031 0.81054,0.82031 h 1.75782 v 1.70899 c 0,0.49805 0.2832,0.81057 0.77148,0.81057 0.47855,0 0.77145,-0.31252 0.77145,-0.81057 V 7.71484 h 1.6504 c 0.5469,0 0.8692,-0.3125 0.8692,-0.82031 0,-0.48828 -0.3223,-0.79101 -0.8692,-0.79101 H 10.3027 V 4.39453 c 0,-0.49805 -0.2929,-0.80078 -0.77145,-0.80078 -0.48828,0 -0.77148,0.30273 -0.77148,0.80078 V 6.10352 H 7.00195 c -0.50781,0 -0.81054,0.30273 -0.81054,0.79101 z M 20.166,6.76758 c 0.8008,0 1.4063,-0.60547 1.4063,-1.39649 0,-0.80078 -0.6055,-1.41601 -1.4063,-1.41601 -0.7812,0 -1.4062,0.61523 -1.4062,1.41601 0,0.79102 0.625,1.39649 1.4062,1.39649 z m -2.8711,2.90039 c 0.791,0 1.4063,-0.61524 1.4063,-1.40625 0,-0.80078 -0.6153,-1.41602 -1.4063,-1.41602 -0.7812,0 -1.4062,0.61524 -1.4062,1.41602 0,0.79101 0.625,1.40625 1.4062,1.40625 z"
       fill="#000"
       fill-opacity="0.85"
       id="path136" />
  </g>
</svg>
